<svg width="1080" height="598" viewBox="0 0 1080 598" fill="none" xmlns="http://www.w3.org/2000/svg">
<g clip-path="url(#clip0_10843_5668)">
<path d="M179.892 566.106H893.792" stroke="#DEE6F6" stroke-width="2.09145" stroke-linecap="square"/>
<path fill-rule="evenodd" clip-rule="evenodd" d="M496.035 217.826L499.801 189.739L525.103 192.919L524.585 220.005C524.429 228.187 517.468 234.579 509.303 234.039C501.023 233.492 494.933 226.051 496.035 217.826Z" fill="#FFC999"/>
<path fill-rule="evenodd" clip-rule="evenodd" d="M531.4 183.726C532.987 182.249 535.348 181.936 536.913 183.812C539.434 186.834 536.421 197.445 529.205 197.532C526.492 197.016 528.924 186.032 531.4 183.726Z" fill="#FFC999"/>
<path d="M534.517 185.296C534.731 185.269 534.926 185.421 534.952 185.635C534.976 185.827 534.855 186.004 534.675 186.057L534.613 186.07C534.554 186.077 534.425 186.11 534.249 186.185C533.944 186.316 533.635 186.523 533.344 186.825C532.818 187.37 532.41 188.16 532.174 189.246C532.112 189.527 532.137 189.598 532.38 189.753L532.55 189.856C533.051 190.163 533.3 190.484 533.32 191.086C533.352 192.025 532.941 192.741 532.253 193.24C531.866 193.521 531.482 193.677 531.211 193.745C531.002 193.797 530.79 193.67 530.738 193.46C530.686 193.251 530.814 193.04 531.023 192.988L531.089 192.968C531.132 192.954 531.188 192.934 531.253 192.907C531.438 192.832 531.624 192.733 531.795 192.608C532.286 192.252 532.563 191.771 532.54 191.113C532.531 190.849 532.459 190.73 532.226 190.575L532.047 190.465C531.483 190.122 531.261 189.771 531.411 189.08C531.678 187.856 532.154 186.935 532.783 186.283C533.414 185.628 534.06 185.352 534.517 185.296Z" fill="#DD936F"/>
<path fill-rule="evenodd" clip-rule="evenodd" d="M494.285 180.958C492.934 179.261 490.644 178.603 488.819 180.226C485.878 182.84 487.283 193.78 494.406 194.937C497.166 194.829 496.392 183.605 494.285 180.958Z" fill="#FFC999"/>
<path d="M490.983 181.844C491.331 181.941 491.818 182.214 492.293 182.75C492.965 183.508 493.399 184.593 493.494 186.048C493.538 186.715 493.301 187.028 492.759 187.278L492.539 187.373C492.232 187.504 492.128 187.606 492.075 187.89C491.949 188.573 492.181 189.112 492.662 189.547C492.804 189.675 492.958 189.784 493.111 189.872L493.227 189.936C493.259 189.952 493.283 189.963 493.299 189.97C493.498 190.053 493.593 190.281 493.51 190.48C493.427 190.679 493.199 190.773 493 190.691C492.775 190.597 492.458 190.414 492.139 190.126C491.472 189.522 491.128 188.724 491.308 187.748C491.407 187.211 491.664 186.925 492.115 186.708L492.346 186.607C492.694 186.462 492.736 186.414 492.716 186.099C492.632 184.813 492.263 183.893 491.709 183.268C491.494 183.025 491.265 182.844 491.038 182.717C490.961 182.674 490.896 182.643 490.848 182.622L490.774 182.595C490.566 182.538 490.445 182.322 490.503 182.115C490.554 181.93 490.73 181.814 490.914 181.831L490.983 181.844Z" fill="#DD936F"/>
<path fill-rule="evenodd" clip-rule="evenodd" d="M531.622 186.627C530.176 206.032 522.122 213.612 510.698 212.76C500.141 211.972 492.527 201.969 493.519 183.17C494.275 168.828 498.548 158.75 514.868 159.968C532.005 161.245 532.69 172.305 531.622 186.627Z" fill="#FFC999"/>
<path d="M501.396 208.809C501.535 208.644 501.781 208.622 501.946 208.761C504.353 210.779 507.904 212.058 511.5 212.326C515.298 212.609 518.127 211.974 521.059 210.197C521.243 210.086 521.483 210.145 521.595 210.329C521.707 210.513 521.648 210.753 521.464 210.865C518.389 212.728 515.398 213.399 511.442 213.104C507.692 212.825 503.986 211.49 501.445 209.359C501.28 209.22 501.258 208.974 501.396 208.809Z" fill="#DD936F"/>
<path fill-rule="evenodd" clip-rule="evenodd" d="M496.924 176.721C495.219 178.82 494.358 182.376 493.955 184.725C493.9 185.05 493.428 185.032 493.399 184.702C493.072 180.994 492.774 171.921 494.329 166.819C496.772 158.796 507.044 152.844 512.881 152.972C515.256 153.023 519.323 153.503 523.333 157.494C527.523 161.666 530.231 161.437 532.865 167.231C534.659 171.18 532.697 181.836 531.747 186.911C531.673 187.299 531.108 187.27 531.078 186.877C530.9 184.481 530.427 181.173 529.185 179.435C529.032 176.259 528.635 170.301 528.635 170.301C521.722 168.093 506.082 167.388 497.909 168.318L496.924 176.721Z" fill="#253368"/>
<path d="M517.677 177.726C520.24 177.274 523.172 177.212 526.29 177.787C526.882 177.896 527.273 178.465 527.164 179.057C527.055 179.649 526.486 180.04 525.895 179.931C523.053 179.407 520.377 179.464 518.055 179.873C517.745 179.927 517.464 179.985 517.215 180.042L516.94 180.109L516.708 180.173C516.133 180.351 515.523 180.029 515.345 179.454C515.167 178.879 515.489 178.269 516.064 178.09L516.256 178.034C516.58 177.945 517.06 177.835 517.677 177.726Z" fill="#253368"/>
<path d="M509.049 178.654C509.223 178.572 509.425 178.629 509.533 178.78L509.568 178.841L511.295 182.508C511.314 182.55 511.326 182.594 511.33 182.64L511.33 182.708L510.302 194.493L513.582 194.748C513.775 194.763 513.925 194.916 513.941 195.103L513.941 195.167C513.926 195.36 513.772 195.51 513.585 195.525L513.522 195.526L509.849 195.241C509.654 195.226 509.504 195.071 509.49 194.882L509.49 194.818L510.543 182.745L508.862 179.173C508.781 179 508.838 178.797 508.988 178.69L509.049 178.654Z" fill="#DD936F"/>
<path d="M499.018 175.734C499.957 175.643 501.045 175.693 502.261 175.857C503.273 175.995 504.342 176.207 505.434 176.475C505.988 176.611 506.521 176.755 507.023 176.9L507.697 177.101L508.181 177.256C508.752 177.448 509.058 178.066 508.866 178.637C508.674 179.207 508.056 179.514 507.485 179.321L507.006 179.169L506.768 179.097C506.195 178.925 505.569 178.753 504.915 178.592C503.892 178.341 502.897 178.143 501.968 178.017C500.906 177.873 499.976 177.831 499.227 177.903C498.628 177.961 498.095 177.522 498.037 176.923C497.98 176.324 498.419 175.791 499.018 175.734Z" fill="#253368"/>
<path d="M509.106 182.525L515.839 183.026C516.269 183.058 516.592 183.433 516.56 183.862C516.53 184.263 516.202 184.571 515.809 184.584L515.724 184.583L508.99 184.081C508.561 184.049 508.238 183.675 508.27 183.245C508.3 182.844 508.628 182.536 509.021 182.523L509.106 182.525Z" fill="#253368"/>
<path d="M509.442 185.709C511.168 185.001 512.854 185.134 514.359 185.779C514.833 185.983 515.184 186.191 515.391 186.342C515.738 186.597 515.814 187.086 515.559 187.433C515.304 187.781 514.815 187.856 514.468 187.601C514.351 187.515 514.101 187.367 513.744 187.214C512.595 186.721 511.331 186.621 510.035 187.153C509.636 187.317 509.18 187.126 509.017 186.727C508.853 186.328 509.044 185.873 509.442 185.709Z" fill="#253368"/>
<path fill-rule="evenodd" clip-rule="evenodd" d="M508.595 181.963L496.827 180.9C496.005 180.826 495.279 181.43 495.211 182.251C495.084 183.785 494.948 186.251 495.156 188.39C495.402 190.914 497.496 192.635 500.009 192.98C503.148 193.41 505.977 193.669 507.554 192.162C509.958 189.867 509.796 185.716 509.945 183.54C510 182.74 509.391 182.034 508.595 181.963Z" fill="white"/>
<path d="M508.619 181.704L496.85 180.641L496.729 180.634L496.621 180.635C495.753 180.669 495.026 181.342 494.953 182.23C494.769 184.445 494.721 186.597 494.898 188.416C495.147 190.968 497.231 192.861 499.974 193.237L500.822 193.348C504.545 193.806 506.4 193.624 507.734 192.35C508.83 191.304 509.482 189.848 509.824 188.002L509.877 187.705C509.993 187.027 510.052 186.438 510.106 185.493L510.199 183.646C510.201 183.616 510.203 183.586 510.205 183.557C510.269 182.618 509.557 181.788 508.619 181.704ZM496.697 181.154L496.788 181.158L508.572 182.221C509.23 182.281 509.731 182.865 509.686 183.522L509.651 184.157L509.61 185.031C509.542 186.37 509.478 187.019 509.313 187.908C508.989 189.655 508.38 191.015 507.375 191.974C506.108 193.185 504.175 193.289 500.045 192.722C497.527 192.377 495.639 190.662 495.415 188.365C495.242 186.584 495.289 184.46 495.471 182.273C495.524 181.632 496.063 181.151 496.697 181.154Z" fill="#253368"/>
<path d="M495.293 180.446L509.915 181.38C510.345 181.407 510.671 181.778 510.644 182.208C510.618 182.61 510.293 182.921 509.9 182.938L509.815 182.937L495.194 182.003C494.764 181.976 494.438 181.605 494.465 181.175C494.491 180.773 494.815 180.462 495.208 180.445L495.293 180.446Z" fill="#253368"/>
<path d="M503.519 183.882C504.757 183.975 505.602 185.274 505.493 186.73C505.471 187.03 505.209 187.255 504.909 187.232C504.609 187.21 504.384 186.948 504.406 186.648C504.474 185.738 504.001 185.011 503.438 184.969C502.873 184.926 502.297 185.576 502.229 186.486C502.207 186.787 501.945 187.012 501.645 186.989C501.345 186.967 501.12 186.705 501.142 186.405C501.247 184.998 502.212 183.867 503.396 183.877L503.519 183.882Z" fill="#5C4E4A"/>
<path fill-rule="evenodd" clip-rule="evenodd" d="M528.587 183.454L516.819 182.391C515.997 182.317 515.271 182.92 515.204 183.742C515.076 185.276 514.941 187.742 515.149 189.882C515.396 192.406 517.489 194.126 520.002 194.471C523.141 194.901 525.969 195.16 527.547 193.653C529.952 191.358 529.789 187.207 529.937 185.031C529.993 184.231 529.385 183.526 528.587 183.454Z" fill="white"/>
<path d="M528.61 183.195L516.842 182.132L516.72 182.125L516.613 182.126C515.744 182.16 515.018 182.833 514.945 183.721C514.761 185.929 514.714 188.087 514.891 189.907C515.14 192.459 517.224 194.352 519.967 194.728L520.539 194.804C524.447 195.305 526.36 195.146 527.727 193.842C528.823 192.795 529.475 191.339 529.817 189.493L529.87 189.196C529.994 188.468 530.053 187.844 530.11 186.773L530.185 185.228C530.189 185.165 530.193 185.106 530.197 185.048C530.262 184.109 529.55 183.28 528.61 183.195ZM516.689 182.645L516.805 182.651L528.564 183.713C529.223 183.772 529.724 184.356 529.678 185.013L529.649 185.519L529.591 186.737C529.528 187.932 529.462 188.558 529.306 189.399C528.982 191.146 528.373 192.506 527.368 193.465C526.1 194.676 524.168 194.78 520.038 194.213C517.52 193.868 515.632 192.153 515.408 189.856C515.235 188.074 515.282 185.944 515.463 183.764C515.516 183.123 516.054 182.642 516.689 182.645Z" fill="#253368"/>
<path d="M521.675 185.236C522.913 185.329 523.757 186.627 523.65 188.084C523.628 188.384 523.366 188.609 523.066 188.587C522.766 188.565 522.541 188.304 522.563 188.004C522.63 187.092 522.157 186.365 521.593 186.323C521.029 186.28 520.454 186.93 520.386 187.84C520.363 188.14 520.102 188.366 519.802 188.343C519.502 188.321 519.276 188.059 519.299 187.759C519.404 186.352 520.368 185.221 521.552 185.231L521.675 185.236Z" fill="#5C4E4A"/>
<path d="M515.285 181.937L529.907 182.871C530.337 182.898 530.663 183.269 530.636 183.699C530.61 184.101 530.285 184.412 529.892 184.429L529.807 184.428L515.186 183.494C514.756 183.467 514.429 183.096 514.457 182.666C514.482 182.264 514.807 181.953 515.2 181.936L515.285 181.937Z" fill="#253368"/>
<path fill-rule="evenodd" clip-rule="evenodd" d="M517.71 197.831C511.746 197.928 506.286 196.979 506.286 196.979C506.286 196.979 507.385 200.696 511.823 201.027C516.26 201.357 517.71 197.831 517.71 197.831Z" fill="white"/>
<path d="M505.764 197.133C505.935 197.714 506.352 198.548 507.106 199.381C508.229 200.619 509.774 201.421 511.782 201.571C513.959 201.733 515.667 201.056 516.93 199.831C517.612 199.169 518.022 198.504 518.214 198.038C518.363 197.676 518.093 197.28 517.701 197.286C515.01 197.33 512.222 197.166 509.519 196.866C508.678 196.773 507.908 196.673 507.225 196.574L506.38 196.442C505.981 196.372 505.649 196.745 505.764 197.133ZM507.281 197.806L507.202 197.671L507.791 197.753C508.292 197.82 508.83 197.887 509.399 197.95L510.225 198.037C512.158 198.23 514.124 198.352 516.064 198.378L516.749 198.382L516.697 198.455C516.543 198.658 516.368 198.858 516.171 199.049C515.124 200.065 513.717 200.622 511.863 200.484C510.144 200.356 508.855 199.687 507.914 198.649C507.668 198.378 507.458 198.094 507.281 197.806Z" fill="#FF7946"/>
<path d="M509.238 202.843C509.344 202.655 509.582 202.59 509.77 202.696L509.901 202.764L509.969 202.797C510.138 202.877 510.33 202.958 510.539 203.034C511.401 203.344 512.279 203.468 513.08 203.305C513.364 203.248 513.633 203.155 513.885 203.024C514.077 202.924 514.312 202.999 514.411 203.19C514.511 203.381 514.436 203.617 514.245 203.716C513.926 203.882 513.589 203.999 513.235 204.07C512.272 204.266 511.259 204.122 510.275 203.768C509.871 203.623 509.564 203.476 509.385 203.375C509.197 203.268 509.132 203.03 509.238 202.843Z" fill="#DD936F"/>
<path fill-rule="evenodd" clip-rule="evenodd" d="M618.471 227.774C619.317 235.16 614.307 241.852 607.145 242.903L546.837 251.743C538.196 253.009 530.186 246.672 529.166 237.759C528.144 228.845 534.516 220.9 543.225 220.227L604.008 215.527C611.227 214.969 617.625 220.388 618.471 227.774Z" fill="#FFC999"/>
<path fill-rule="evenodd" clip-rule="evenodd" d="M591.362 248.097L548.541 253.788C539.099 255.178 530.382 248.469 529.309 238.985C528.235 229.501 529.051 220.956 538.565 220.198L587.187 216.904L591.362 248.097Z" fill="#597EF7"/>
<path fill-rule="evenodd" clip-rule="evenodd" d="M540.006 314.547L552.026 226.371C550.202 224.51 543.603 220.004 528.836 221.244C523.927 221.656 512.47 227.755 507.311 227.862C503.821 227.934 493.167 220.905 490.286 221.538C473.511 225.22 468.601 227.675 459.601 230.538L474.561 311.702C474.561 311.702 469.992 326.927 478.581 327.159C544.838 328.944 535.989 328.091 535.989 328.091C535.989 328.091 544.152 326.468 540.006 314.547Z" fill="#597EF7"/>
<path fill-rule="evenodd" clip-rule="evenodd" d="M495.939 216.565L489.468 221.538L497.651 236.267L508.177 226.905L495.939 216.565Z" fill="#597EF7"/>
<path d="M489.198 221.474C489.438 221.337 489.737 221.402 489.9 221.615L489.941 221.677L497.792 235.415L507.818 226.585C508.023 226.405 508.326 226.406 508.529 226.578L508.587 226.634C508.767 226.839 508.766 227.143 508.594 227.346L508.538 227.403L498.011 236.676C497.772 236.886 497.41 236.845 497.221 236.602L497.178 236.537L488.995 222.218C488.846 221.956 488.937 221.623 489.198 221.474Z" fill="#253368"/>
<path fill-rule="evenodd" clip-rule="evenodd" d="M524.62 216.565L529.261 222.048L519.744 237.086L507.953 226.9L524.62 216.565Z" fill="#597EF7"/>
<path d="M528.29 223.694C528.455 223.442 528.793 223.372 529.044 223.537C529.273 223.687 529.352 223.98 529.24 224.221L529.201 224.292L520.608 237.384C520.445 237.633 520.117 237.701 519.871 237.551L519.806 237.505L508.469 228.128L506.714 314.968L506.64 315.507L506.572 316.048C506.539 316.329 506.506 316.626 506.474 316.936C506.335 318.302 506.247 319.661 506.235 320.927C506.212 323.403 506.491 325.223 507.088 326.019C507.268 326.259 507.22 326.601 506.979 326.781C506.738 326.962 506.397 326.913 506.216 326.673C505.425 325.618 505.12 323.629 505.145 320.917C505.157 319.614 505.247 318.222 505.39 316.825L505.456 316.211C505.479 316.013 505.502 315.821 505.525 315.637L505.62 314.928C505.623 314.915 505.625 314.904 505.626 314.895L505.631 314.875L507.403 226.978C507.412 226.547 507.886 226.306 508.235 226.525L508.295 226.569L520.031 236.277L528.29 223.694Z" fill="#253368"/>
<path fill-rule="evenodd" clip-rule="evenodd" d="M510.744 239.949C510.612 240.911 511.156 241.779 511.957 241.888C512.759 241.997 513.515 241.306 513.646 240.345C513.777 239.383 513.233 238.515 512.432 238.405C511.63 238.296 510.875 238.987 510.744 239.949Z" fill="white"/>
<path fill-rule="evenodd" clip-rule="evenodd" d="M510.519 256.523C510.389 257.485 510.932 258.353 511.734 258.461C512.536 258.57 513.291 257.881 513.422 256.918C513.554 255.956 513.01 255.088 512.209 254.978C511.407 254.869 510.65 255.561 510.519 256.523Z" fill="white"/>
<path fill-rule="evenodd" clip-rule="evenodd" d="M509.701 274.804C509.57 275.766 510.114 276.633 510.915 276.742C511.717 276.851 512.473 276.162 512.604 275.199C512.735 274.237 512.191 273.369 511.39 273.259C510.588 273.15 509.833 273.842 509.701 274.804Z" fill="white"/>
<path fill-rule="evenodd" clip-rule="evenodd" d="M509.055 311.456C508.924 312.418 509.468 313.286 510.269 313.395C511.071 313.505 511.827 312.814 511.957 311.852C512.088 310.889 511.545 310.022 510.744 309.912C509.942 309.803 509.186 310.495 509.055 311.456Z" fill="white"/>
<path fill-rule="evenodd" clip-rule="evenodd" d="M508.884 290.894C508.753 291.855 509.296 292.724 510.097 292.833C510.899 292.942 511.655 292.251 511.786 291.29C511.917 290.328 511.373 289.46 510.572 289.35C509.77 289.241 509.014 289.933 508.884 290.894Z" fill="white"/>
<path d="M542.842 251.367L522.66 250.864C522.367 250.857 522.121 251.083 522.103 251.375L521.146 267.018C521.135 267.203 521.219 267.382 521.368 267.491L532.006 275.264C532.207 275.41 532.481 275.403 532.673 275.246L541.072 268.384C541.18 268.296 541.25 268.171 541.268 268.033L543.369 251.983C543.411 251.662 543.166 251.376 542.842 251.367ZM523.158 251.966L542.21 252.441L540.215 267.676L532.308 274.135L522.252 266.787L523.158 251.966Z" fill="#253368"/>
<path fill-rule="evenodd" clip-rule="evenodd" d="M540.178 334.378L474.337 333.695L475.635 325.954L539.298 326.578L540.178 334.378Z" fill="#ADC6FF"/>
<path fill-rule="evenodd" clip-rule="evenodd" d="M474.874 331.53C474.874 331.53 466.105 351.164 467.008 376.608C478.167 383.969 500.591 388.167 500.591 388.167C502.262 389.034 512.276 388.589 513.971 387.853C513.971 387.853 544.517 378.537 547.405 373.908C545.765 349.921 540.072 333.286 540.072 333.286" fill="#ADC6FF"/>
<path fill-rule="evenodd" clip-rule="evenodd" d="M510.025 329.293C509.894 330.255 510.437 331.123 511.239 331.233C512.041 331.342 512.796 330.651 512.927 329.689C513.058 328.726 512.514 327.859 511.713 327.749C510.911 327.64 510.156 328.332 510.025 329.293Z" fill="white"/>
<path fill-rule="evenodd" clip-rule="evenodd" d="M456.646 327.232C448.786 326.344 443.047 319.383 443.674 311.498L448.949 245.098C449.704 235.584 458.191 228.587 467.675 229.66C477.159 230.732 483.869 239.446 482.482 248.889L472.802 314.79C471.653 322.617 464.505 328.12 456.646 327.232Z" fill="#FFC999"/>
<path fill-rule="evenodd" clip-rule="evenodd" d="M483.471 249.596C484.859 240.152 477.158 230.322 467.674 229.251C458.191 228.179 449.704 235.175 448.949 244.69L444.974 289.967C444.974 289.967 475.571 291.878 476.587 291.878L483.471 249.596Z" fill="#597EF7"/>
<path fill-rule="evenodd" clip-rule="evenodd" d="M485.387 491.884C475.959 491.846 468.265 484.324 468.017 474.898L467.04 368.349C466.938 357.213 476.086 348.209 487.22 348.488C498.151 348.762 506.764 357.891 506.403 368.82L502.888 475.169C502.495 484.539 494.765 491.922 485.387 491.884Z" fill="#ADC6FF"/>
<path fill-rule="evenodd" clip-rule="evenodd" d="M495.273 608.727L502.206 479.254C502.753 469.298 494.78 460.95 484.809 461.039C475.182 461.126 467.486 469.067 467.699 478.692L470.271 608.511C470.271 608.511 480.242 614.329 495.273 608.727Z" fill="#ADC6FF"/>
<path fill-rule="evenodd" clip-rule="evenodd" d="M540.203 497.724C549.594 496.873 556.608 488.713 556.042 479.301L547.82 373.067C546.961 361.963 537.071 353.782 526.003 355.021C515.135 356.236 507.342 366.075 508.645 376.932L521.327 482.581C522.524 491.883 530.864 498.571 540.203 497.724Z" fill="#ADC6FF"/>
<path fill-rule="evenodd" clip-rule="evenodd" d="M538.882 612.719L521.657 486.467C520.253 476.595 527.477 467.59 537.417 466.818C547.016 466.073 555.37 473.32 555.986 482.928L562.683 610.314C562.683 610.314 554.34 617.002 538.882 612.719Z" fill="#ADC6FF"/>
<path fill-rule="evenodd" clip-rule="evenodd" d="M557.599 185.992L543.782 176.737C543.782 176.737 537.229 160.383 533.92 157.838C530.611 155.294 526.301 155.791 522.661 154.159C519.022 152.526 519.835 156.539 524.378 158.81C528.922 161.08 530.77 160.823 531.873 165.458C532.976 170.092 531.303 186.623 537.977 189.566C540.358 191.754 542.228 193.425 543.691 194.699C546.887 197.479 551.84 197.054 554.358 193.649C554.42 193.568 554.481 193.485 554.541 193.4C557.138 189.778 561.547 188.059 557.599 185.992Z" fill="#FFC999"/>
<path d="M519.591 154.773C519.131 153.196 520.384 152.571 522.335 153.447C522.532 153.535 522.62 153.766 522.532 153.963C522.443 154.159 522.212 154.247 522.016 154.159C520.584 153.516 520.106 153.754 520.34 154.554C520.665 155.668 522.085 157.113 524.067 158.104L524.407 158.27C525.548 158.816 527.682 159.758 527.844 159.836C530.06 160.901 531.018 162.029 531.708 164.765L531.768 165.011C531.941 165.738 532.074 166.721 532.229 168.302L532.631 172.692L532.724 173.624C532.848 174.831 532.977 175.905 533.124 176.941L533.23 177.661C534.213 184.052 535.896 188.022 538.722 189.268C538.919 189.355 539.009 189.585 538.922 189.782C538.835 189.979 538.604 190.069 538.407 189.982C535.133 188.538 533.355 184.125 532.351 177.051C532.203 176.005 532.073 174.921 531.948 173.705L531.753 171.675L531.505 168.924C531.33 167.052 531.189 165.951 531.009 165.192C530.388 162.588 529.624 161.595 527.691 160.63L527.442 160.51C527.001 160.31 524.655 159.271 523.718 158.802C521.557 157.722 519.984 156.121 519.591 154.773Z" fill="#DD936F"/>
<path d="M549.725 245.207C550.024 245.241 550.239 245.511 550.205 245.81L549.951 247.991L549.739 249.705C549.14 254.23 544.914 283.655 541.26 309.554L540.568 314.463L540.634 314.606C542.171 318.03 542.037 321.457 540.861 324.596L540.758 324.864C540.541 325.412 540.308 325.904 540.074 326.333L539.96 326.539C539.871 326.694 539.8 326.809 539.751 326.882C539.583 327.132 539.244 327.199 538.994 327.031C538.744 326.864 538.678 326.525 538.845 326.275L538.934 326.134C538.983 326.052 539.045 325.944 539.117 325.812C539.33 325.421 539.544 324.969 539.744 324.463C540.947 321.422 541.095 318.095 539.514 314.781C539.468 314.685 539.452 314.577 539.467 314.471L548.192 252.945C548.464 251.003 548.642 249.705 548.705 249.205L548.949 247.182C549.004 246.717 549.061 246.224 549.122 245.686C549.153 245.412 549.383 245.209 549.651 245.203L549.725 245.207Z" fill="#253368"/>
<path fill-rule="evenodd" clip-rule="evenodd" d="M511.096 470.638L434.967 468.588C432.951 468.533 431.359 466.854 431.413 464.835L432.852 411.407C432.907 409.389 434.586 407.797 436.603 407.852L512.732 409.902C514.749 409.956 516.341 411.636 516.287 413.654L514.848 467.083C514.794 469.1 513.115 470.692 511.096 470.638Z" fill="#4E5C93"/>
<path fill-rule="evenodd" clip-rule="evenodd" d="M508.504 470.568L432.376 468.518C430.359 468.463 428.767 466.784 428.822 464.766L430.26 411.337C430.315 409.32 431.994 407.727 434.011 407.782L510.14 409.832C512.159 409.886 513.749 411.566 513.695 413.584L512.256 467.013C512.202 469.03 510.523 470.622 508.504 470.568Z" fill="#253368"/>
<path fill-rule="evenodd" clip-rule="evenodd" d="M473.071 409.139C470.649 409.939 471.218 412.083 470.905 417.384C470.709 420.696 471.518 425.016 470.647 427.745C469.75 430.56 456.8 432 453.873 413.426C453.873 413.426 450.958 391.814 457.003 387.605C462.479 383.794 471.874 391.332 471.874 391.332C471.874 391.332 473.651 393.723 477.194 400.332L480.604 408.832L473.071 409.139Z" fill="#FFC999"/>
<path d="M466.234 409.938C466.427 409.936 466.585 410.09 466.588 410.282L466.593 410.545C466.599 410.761 466.606 411.011 466.617 411.293C466.647 412.101 466.694 413.001 466.762 413.971C466.954 416.74 467.268 419.509 467.734 422.09C468.076 423.992 468.489 425.719 468.977 427.23C469.036 427.414 468.936 427.61 468.752 427.669C468.569 427.729 468.373 427.628 468.313 427.445C467.815 425.901 467.395 424.144 467.047 422.214C466.577 419.605 466.259 416.812 466.066 414.019L466.013 413.199C465.98 412.665 465.954 412.155 465.934 411.674L465.906 410.916L465.89 410.292C465.887 410.099 466.041 409.941 466.234 409.938Z" fill="#4E5C93"/>
<path d="M462.116 411.055C462.308 411.055 462.465 411.211 462.465 411.404C462.467 412.883 462.589 414.555 462.817 416.385C463.061 418.347 463.418 420.436 463.859 422.58C464.121 423.852 464.399 425.08 464.68 426.23L464.82 426.799C464.934 427.258 465.041 427.67 465.136 428.029L465.255 428.47C465.307 428.655 465.199 428.848 465.013 428.9C464.828 428.951 464.635 428.843 464.584 428.657L464.462 428.208L464.211 427.24L464.143 426.968C463.813 425.647 463.484 424.215 463.176 422.72C462.731 420.559 462.371 418.453 462.125 416.471C461.894 414.615 461.77 412.915 461.768 411.405C461.767 411.212 461.923 411.056 462.116 411.055Z" fill="#4E5C93"/>
<path d="M457.525 411.85C457.717 411.834 457.886 411.976 457.903 412.168L457.968 412.815C457.983 412.948 457.999 413.09 458.016 413.24C458.117 414.102 458.247 415.07 458.41 416.123C458.876 419.131 459.513 422.215 460.346 425.196C460.397 425.382 460.289 425.574 460.103 425.626C459.918 425.678 459.726 425.57 459.674 425.384C458.833 422.374 458.191 419.264 457.721 416.23L457.588 415.341C457.504 414.763 457.432 414.214 457.369 413.7L457.275 412.89L457.208 412.228C457.191 412.036 457.333 411.867 457.525 411.85Z" fill="#4E5C93"/>
<path fill-rule="evenodd" clip-rule="evenodd" d="M471.748 391.557L454.282 392.968L443.97 316.024C442.977 307.766 449.085 300.353 457.38 299.748C465.675 299.143 472.794 305.593 473.009 313.907L471.748 391.557Z" fill="#FFC999"/>
<path d="M480.953 408.825C480.957 409.018 480.804 409.177 480.611 409.181L479.379 409.21C478.639 409.229 477.899 409.25 477.191 409.273L475.467 409.337C474.361 409.385 473.546 409.434 473.112 409.486C471.167 409.716 470.984 412.511 471.778 421.054L471.986 423.299C472.096 424.55 472.171 425.546 472.223 426.499C472.233 426.692 472.086 426.856 471.893 426.866C471.701 426.877 471.537 426.729 471.526 426.537L471.496 426.016C471.452 425.312 471.395 424.564 471.32 423.692L470.917 419.291C470.637 416.133 470.574 414.659 470.663 413.08C470.813 410.45 471.514 408.972 473.03 408.793L473.346 408.761C473.985 408.705 475.029 408.653 476.384 408.603L477.706 408.559L479.6 408.507L480.597 408.483C480.789 408.479 480.949 408.632 480.953 408.825Z" fill="#4E5C93"/>
<path d="M480.47 256.686L480.545 256.689C480.819 256.72 481.023 256.949 481.029 257.217L481.026 257.291L477.147 292.036C477.117 292.3 476.903 292.501 476.644 292.519H476.572L444.959 290.609C444.659 290.59 444.43 290.332 444.448 290.032C444.465 289.756 444.683 289.541 444.951 289.521L445.025 289.521L476.121 291.4L479.942 257.17C479.97 256.921 480.162 256.73 480.398 256.693L480.47 256.686Z" fill="#253368"/>
<path d="M589.449 228.636C589.724 228.609 589.971 228.79 590.033 229.052L590.045 229.125L591.904 248.043C591.93 248.311 591.758 248.554 591.506 248.622L591.435 248.637L548.494 254.427C548.196 254.467 547.921 254.258 547.881 253.96C547.844 253.686 548.017 253.433 548.276 253.362L548.348 253.347L590.768 247.627L588.96 229.231C588.933 228.957 589.115 228.71 589.376 228.648L589.449 228.636Z" fill="#253368"/>
<path fill-rule="evenodd" clip-rule="evenodd" d="M542.775 193.934L550.342 181.394L611.596 216.521C618.156 220.282 620.377 229.006 616.473 235.675C612.57 242.344 604.123 244.252 597.93 239.865L542.775 193.934Z" fill="#FFC999"/>
<path d="M571.654 218.124C571.815 217.934 572.087 217.894 572.293 218.018L572.359 218.066L591.531 234.325C591.742 234.504 591.768 234.82 591.589 235.031C591.428 235.221 591.156 235.261 590.949 235.136L590.883 235.089L571.712 218.83C571.501 218.651 571.475 218.335 571.654 218.124Z" fill="#253368"/>
<path d="M540.072 333.305C540.287 333.305 540.462 333.48 540.462 333.695C540.462 333.889 540.321 334.05 540.135 334.08L540.072 334.085H474.337C474.121 334.085 473.947 333.911 473.947 333.695C473.947 333.501 474.088 333.34 474.274 333.31L474.337 333.305H540.072Z" fill="#597EF7"/>
<path d="M539.26 325.409C539.561 325.409 539.805 325.653 539.805 325.954C539.805 326.23 539.6 326.458 539.334 326.494L539.26 326.499H475.636C475.335 326.499 475.091 326.255 475.091 325.954C475.091 325.678 475.296 325.45 475.562 325.414L475.636 325.409H539.26Z" fill="#253368"/>
<path d="M506.651 325.955C506.845 325.955 507.006 326.096 507.036 326.282L507.042 326.345V388.059C507.042 388.274 506.867 388.449 506.651 388.449C506.457 388.449 506.297 388.307 506.266 388.122L506.261 388.059V326.345C506.261 326.13 506.436 325.955 506.651 325.955Z" fill="#597EF7"/>
<path d="M513.961 387.463C514.177 387.458 514.355 387.628 514.361 387.844C514.365 388.037 514.227 388.202 514.043 388.236L513.98 388.243L500.6 388.557C500.384 388.562 500.205 388.391 500.2 388.176C500.196 387.982 500.334 387.818 500.518 387.783L500.581 387.776L513.961 387.463Z" fill="#597EF7"/>
<path d="M516.334 334.071C516.528 334.071 516.688 334.212 516.719 334.398L516.724 334.461V365.464C516.724 367.946 515.452 370.25 513.366 371.574L513.168 371.696L507.531 375.027C507.346 375.137 507.106 375.075 506.997 374.89C506.899 374.725 506.937 374.518 507.077 374.397L507.134 374.355L512.771 371.024C514.673 369.9 515.865 367.883 515.94 365.684L515.943 365.464V334.461C515.943 334.245 516.118 334.071 516.334 334.071Z" fill="#597EF7"/>
<path fill-rule="evenodd" clip-rule="evenodd" d="M375.714 514.773C375.714 518.476 372.712 521.478 369.009 521.478C365.306 521.478 362.304 518.476 362.304 514.773C362.304 511.07 365.306 508.068 369.009 508.068C372.712 508.068 375.714 511.07 375.714 514.773Z" fill="#253368"/>
<path fill-rule="evenodd" clip-rule="evenodd" d="M367.751 575.121H370.347V516.776H367.751V575.121Z" fill="#253368"/>
<path fill-rule="evenodd" clip-rule="evenodd" d="M367.752 575.121L337.521 580.156L335.57 578.747L367.752 569.268V575.121Z" fill="#253368"/>
<path fill-rule="evenodd" clip-rule="evenodd" d="M370.347 575.121L400.577 580.156L402.528 578.747L370.347 569.268V575.121Z" fill="#253368"/>
<path fill-rule="evenodd" clip-rule="evenodd" d="M366.99 581.89H371.108V573.436H366.99V581.89Z" fill="#253368"/>
<path fill-rule="evenodd" clip-rule="evenodd" d="M340.354 582.003C340.354 583.933 338.789 585.498 336.859 585.498C334.928 585.498 333.363 583.933 333.363 582.003C333.363 580.072 334.928 578.507 336.859 578.507C338.789 578.507 340.354 580.072 340.354 582.003Z" fill="#253368"/>
<path fill-rule="evenodd" clip-rule="evenodd" d="M372.544 582.003C372.544 583.933 370.979 585.498 369.049 585.498C367.119 585.498 365.554 583.933 365.554 582.003C365.554 580.072 367.119 578.507 369.049 578.507C370.979 578.507 372.544 580.072 372.544 582.003Z" fill="#253368"/>
<path fill-rule="evenodd" clip-rule="evenodd" d="M405.041 582.003C405.041 583.933 403.476 585.498 401.546 585.498C399.616 585.498 398.051 583.933 398.051 582.003C398.051 580.072 399.616 578.507 401.546 578.507C403.476 578.507 405.041 580.072 405.041 582.003Z" fill="#253368"/>
<path fill-rule="evenodd" clip-rule="evenodd" d="M411.04 513.542H326.979C326.979 505.28 333.676 498.582 341.938 498.582H396.081C404.342 498.582 411.04 505.28 411.04 513.542Z" fill="#A3B5D6"/>
<g clip-path="url(#clip1_10843_5668)">
<rect width="200" height="200" transform="translate(638.936 154.167)" fill="white"/>
<path opacity="0.163388" fill-rule="evenodd" clip-rule="evenodd" d="M823.825 269.179H807.496C805.449 269.179 803.775 267.505 803.775 265.458V249.123C803.775 247.076 805.449 245.401 807.496 245.401H823.825C825.872 245.401 827.546 247.076 827.546 249.123V265.458C827.546 267.505 825.872 269.179 823.825 269.179Z" fill="#597EF7"/>
<path fill-rule="evenodd" clip-rule="evenodd" d="M663.01 255.033H655.766C654.853 255.033 654.105 254.237 654.105 253.264V245.452C654.105 244.479 654.853 243.682 655.766 243.682H663.01C663.923 243.682 664.67 244.479 664.67 245.452V253.264C664.67 254.237 663.923 255.033 663.01 255.033Z" fill="#FFC540"/>
<path fill-rule="evenodd" clip-rule="evenodd" d="M823.924 300.004C823.01 300.004 822.263 299.262 822.263 298.356V291.083C822.263 290.177 823.01 289.435 823.924 289.435H831.168C832.081 289.435 832.828 290.177 832.828 291.083V298.356C832.828 299.262 832.081 300.004 831.168 300.004H823.924Z" fill="#FF7A46"/>
<path opacity="0.49707" fill-rule="evenodd" clip-rule="evenodd" d="M649.631 220.852C647.186 220.852 645.186 218.852 645.186 216.406V196.894C645.186 194.449 647.186 192.448 649.631 192.448H669.144C671.589 192.448 673.59 194.449 673.59 196.894V216.406C673.59 218.852 671.589 220.852 669.144 220.852H649.631Z" fill="#ADC6FF"/>
<path fill-rule="evenodd" clip-rule="evenodd" d="M741.49 326.995H739.91C737.737 326.995 735.959 325.221 735.959 323.053V291.519C735.959 289.35 737.737 287.577 739.91 287.577H741.49C743.663 287.577 745.441 289.35 745.441 291.519V323.053C745.441 325.221 743.663 326.995 741.49 326.995Z" fill="#253368"/>
<path fill-rule="evenodd" clip-rule="evenodd" d="M788.443 328.172C788.443 330.785 786.32 332.903 783.702 332.903H698.367C695.748 332.903 693.626 330.785 693.626 328.172C693.626 325.56 695.748 323.442 698.367 323.442H783.702C786.32 323.442 788.443 325.56 788.443 328.172Z" fill="#253368"/>
<path fill-rule="evenodd" clip-rule="evenodd" d="M727.219 336.163C725.916 336.163 724.85 335.099 724.85 333.798V322.546C724.85 321.246 725.916 320.182 727.219 320.182H754.181C755.485 320.182 756.552 321.246 756.552 322.546V333.798C756.552 335.099 755.485 336.163 754.181 336.163H727.219Z" fill="#ADC6FF"/>
<path d="M728.787 322.512V333.833" stroke="#597EF7" stroke-width="6" stroke-linecap="round" stroke-linejoin="round"/>
<path d="M752.22 322.512V333.833" stroke="#597EF7" stroke-width="6" stroke-linecap="round" stroke-linejoin="round"/>
<path fill-rule="evenodd" clip-rule="evenodd" d="M696.584 305.835H785.483V202.226H696.584V305.835Z" fill="#253368"/>
<path fill-rule="evenodd" clip-rule="evenodd" d="M696.185 306.729C693.96 306.729 692.14 304.913 692.14 302.693V278.834C692.14 276.615 693.96 274.798 696.185 274.798H785.883C788.108 274.798 789.929 276.615 789.929 278.834V302.693C789.929 304.913 788.108 306.729 785.883 306.729H696.185Z" fill="#ADC6FF"/>
<path fill-rule="evenodd" clip-rule="evenodd" d="M696.185 232.183C693.96 232.183 692.14 230.366 692.14 228.146V204.288C692.14 202.068 693.96 200.251 696.185 200.251H785.883C788.108 200.251 789.929 202.068 789.929 204.288V228.146C789.929 230.366 788.108 232.183 785.883 232.183H696.185Z" fill="#ADC6FF"/>
<path fill-rule="evenodd" clip-rule="evenodd" d="M703.474 219.244C701.799 219.244 700.441 217.888 700.441 216.217C700.441 214.545 701.799 213.19 703.474 213.19C705.151 213.19 706.509 214.545 706.509 216.217C706.509 217.888 705.151 219.244 703.474 219.244Z" fill="white"/>
<path fill-rule="evenodd" clip-rule="evenodd" d="M709.792 216.217C709.792 214.545 711.15 213.19 712.826 213.19C714.502 213.19 715.861 214.545 715.861 216.217C715.861 217.888 714.502 219.244 712.826 219.244C711.15 219.244 709.792 217.888 709.792 216.217Z" fill="white"/>
<path fill-rule="evenodd" clip-rule="evenodd" d="M722.178 219.244C720.502 219.244 719.144 217.888 719.144 216.217C719.144 214.545 720.502 213.19 722.178 213.19C723.853 213.19 725.211 214.545 725.211 216.217C725.211 217.888 723.853 219.244 722.178 219.244Z" fill="white"/>
<path fill-rule="evenodd" clip-rule="evenodd" d="M754.379 219.244C753.917 219.244 753.542 218.871 753.542 218.409V214.025C753.542 213.564 753.917 213.19 754.379 213.19H783.046C783.508 213.19 783.883 213.564 783.883 214.025V218.409C783.883 218.871 783.508 219.244 783.046 219.244H754.379Z" fill="#597EF7"/>
<path fill-rule="evenodd" clip-rule="evenodd" d="M696.185 269.456C693.96 269.456 692.14 267.639 692.14 265.419V241.561C692.14 239.341 693.96 237.524 696.185 237.524H785.883C788.108 237.524 789.929 239.341 789.929 241.561V265.419C789.929 267.639 788.108 269.456 785.883 269.456H696.185Z" fill="#ADC6FF"/>
<path fill-rule="evenodd" clip-rule="evenodd" d="M703.474 257.599C701.799 257.599 700.441 256.244 700.441 254.571C700.441 252.9 701.799 251.545 703.474 251.545C705.151 251.545 706.509 252.9 706.509 254.571C706.509 256.244 705.151 257.599 703.474 257.599Z" fill="#FF7946"/>
<path fill-rule="evenodd" clip-rule="evenodd" d="M712.826 257.599C711.15 257.599 709.792 256.244 709.792 254.571C709.792 252.9 711.15 251.545 712.826 251.545C714.502 251.545 715.861 252.9 715.861 254.571C715.861 256.244 714.502 257.599 712.826 257.599Z" fill="#253368"/>
<path fill-rule="evenodd" clip-rule="evenodd" d="M722.178 257.599C720.502 257.599 719.144 256.244 719.144 254.571C719.144 252.9 720.502 251.545 722.178 251.545C723.853 251.545 725.211 252.9 725.211 254.571C725.211 256.244 723.853 257.599 722.178 257.599Z" fill="#253368"/>
<path fill-rule="evenodd" clip-rule="evenodd" d="M782.871 257.599H754.554C753.995 257.599 753.542 257.148 753.542 256.59V252.553C753.542 251.996 753.995 251.545 754.554 251.545H782.871C783.43 251.545 783.883 251.996 783.883 252.553V256.59C783.883 257.148 783.43 257.599 782.871 257.599Z" fill="#FF7946"/>
<path fill-rule="evenodd" clip-rule="evenodd" d="M700.441 290.987C700.441 289.315 701.799 287.96 703.474 287.96C705.151 287.96 706.509 289.315 706.509 290.987C706.509 292.658 705.151 294.014 703.474 294.014C701.799 294.014 700.441 292.658 700.441 290.987Z" fill="white"/>
<path fill-rule="evenodd" clip-rule="evenodd" d="M712.826 294.014C711.15 294.014 709.792 292.658 709.792 290.987C709.792 289.315 711.15 287.96 712.826 287.96C714.502 287.96 715.861 289.315 715.861 290.987C715.861 292.658 714.502 294.014 712.826 294.014Z" fill="white"/>
<path fill-rule="evenodd" clip-rule="evenodd" d="M722.178 294.014C720.502 294.014 719.144 292.658 719.144 290.987C719.144 289.315 720.502 287.96 722.178 287.96C723.853 287.96 725.211 289.315 725.211 290.987C725.211 292.658 723.853 294.014 722.178 294.014Z" fill="white"/>
<path fill-rule="evenodd" clip-rule="evenodd" d="M782.871 294.014H754.554C753.995 294.014 753.542 293.562 753.542 293.005V288.968C753.542 288.411 753.995 287.96 754.554 287.96H782.871C783.43 287.96 783.883 288.411 783.883 288.968V293.005C783.883 293.562 783.43 294.014 782.871 294.014Z" fill="#597EF7"/>
<path fill-rule="evenodd" clip-rule="evenodd" d="M786.103 178.73C768.765 178.73 754.71 192.786 754.71 210.124C754.71 227.462 768.765 241.517 786.103 241.517C803.442 241.517 817.497 227.462 817.497 210.124C817.497 192.786 803.442 178.73 786.103 178.73Z" fill="#FAAD14"/>
<path fill-rule="evenodd" clip-rule="evenodd" d="M787.386 219.093H786.264C785.335 219.093 784.583 218.34 784.583 217.411V196.109C784.583 195.18 785.335 194.427 786.264 194.427H787.386C788.314 194.427 789.067 195.18 789.067 196.109V217.411C789.067 218.34 788.314 219.093 787.386 219.093Z" fill="white"/>
<path fill-rule="evenodd" clip-rule="evenodd" d="M787.386 225.987H786.264C785.335 225.987 784.583 225.234 784.583 224.306V223.184C784.583 222.256 785.335 221.503 786.264 221.503H787.386C788.314 221.503 789.067 222.256 789.067 223.184V224.306C789.067 225.234 788.314 225.987 787.386 225.987Z" fill="white"/>
</g>
<path fill-rule="evenodd" clip-rule="evenodd" d="M753.225 470.821C768.773 463.467 778.039 482.754 770.22 493.493C760.678 506.597 755.79 521.675 753.068 526.218C750.772 530.051 744.483 539.394 736.909 535.087C729.939 531.124 733.738 515.569 733.738 515.569C733.738 515.569 734.045 479.893 753.225 470.821Z" fill="#5B8C00"/>
<path fill-rule="evenodd" clip-rule="evenodd" d="M706.461 532.092C701.176 524.961 699.246 514.728 705.146 512.104C710.802 509.588 720.172 515.783 724.512 527.705C728.851 539.627 731.355 548.198 727.11 549.689C720.145 552.134 713.443 541.511 706.461 532.092Z" fill="#5B8C00"/>
<path fill-rule="evenodd" clip-rule="evenodd" d="M762.029 532.634C756.051 539.64 747.424 553.733 742.02 548.797C738.744 545.806 743.123 531.639 755.109 523.932C765.305 517.375 768.008 525.628 762.029 532.634Z" fill="#7CB305"/>
<path fill-rule="evenodd" clip-rule="evenodd" d="M704.823 484.017C707.096 482.488 709.956 482.138 712.566 482.974C716.208 484.141 721.734 487.614 727.204 497.583C734.345 510.598 738.063 524.867 737.328 533.905C736.848 539.816 729.566 542.364 725.492 538.055C723.621 536.075 721.642 533.024 719.705 528.396C711.91 509.769 704.623 498.097 703.754 496.925C701.435 493.798 699.777 487.412 704.823 484.017Z" fill="#7CB305"/>
<path fill-rule="evenodd" clip-rule="evenodd" d="M710.051 491.447C710.128 492.366 709.445 493.174 708.525 493.251C707.606 493.329 706.798 492.646 706.72 491.726C706.643 490.806 707.326 489.998 708.246 489.921C709.165 489.844 709.973 490.527 710.051 491.447Z" fill="white"/>
<path fill-rule="evenodd" clip-rule="evenodd" d="M724.244 498.581C724.321 499.501 723.638 500.309 722.719 500.386C721.799 500.463 720.991 499.78 720.914 498.86C720.837 497.941 721.52 497.133 722.439 497.056C723.359 496.978 724.167 497.661 724.244 498.581Z" fill="white"/>
<path fill-rule="evenodd" clip-rule="evenodd" d="M721.865 517.577C721.954 518.63 721.172 519.556 720.118 519.644C719.065 519.732 718.14 518.95 718.052 517.897C717.963 516.844 718.745 515.918 719.799 515.83C720.852 515.742 721.777 516.524 721.865 517.577Z" fill="white"/>
<path fill-rule="evenodd" clip-rule="evenodd" d="M765.461 489.188C765.461 490.683 764.249 491.895 762.755 491.895C761.26 491.895 760.048 490.683 760.048 489.188C760.048 487.694 761.26 486.482 762.755 486.482C764.249 486.482 765.461 487.694 765.461 489.188Z" fill="white"/>
<path fill-rule="evenodd" clip-rule="evenodd" d="M743.674 497.453C743.674 498.947 742.463 500.159 740.968 500.159C739.473 500.159 738.262 498.947 738.262 497.453C738.262 495.958 739.473 494.746 740.968 494.746C742.463 494.746 743.674 495.958 743.674 497.453Z" fill="white"/>
<path fill-rule="evenodd" clip-rule="evenodd" d="M750.73 515.823C750.73 516.448 750.224 516.954 749.599 516.954C748.975 516.954 748.468 516.448 748.468 515.823C748.468 515.198 748.975 514.692 749.599 514.692C750.224 514.692 750.73 515.198 750.73 515.823Z" fill="white"/>
<path fill-rule="evenodd" clip-rule="evenodd" d="M758.88 530.289C758.88 531.212 758.131 531.96 757.209 531.96C756.286 531.96 755.538 531.212 755.538 530.289C755.538 529.366 756.286 528.618 757.209 528.618C758.131 528.618 758.88 529.366 758.88 530.289Z" fill="white"/>
<path d="M719.849 533.996C720.005 533.847 720.251 533.853 720.4 534.009L720.471 534.086L720.525 534.146C720.623 534.255 720.737 534.386 720.864 534.538C721.226 534.97 721.629 535.486 722.062 536.086C723.296 537.795 724.529 539.833 725.68 542.199C728.962 548.95 730.93 556.968 730.93 566.224C730.93 566.439 730.756 566.614 730.54 566.614C730.325 566.614 730.151 566.439 730.151 566.224C730.151 557.09 728.211 549.187 724.979 542.54C723.849 540.216 722.639 538.215 721.431 536.542C721.033 535.992 720.664 535.516 720.329 535.113L720.267 535.039C720.172 534.926 720.086 534.825 720.009 534.738L719.911 534.628C719.875 534.588 719.85 534.561 719.836 534.547C719.687 534.391 719.693 534.144 719.849 533.996Z" fill="#253368"/>
<path d="M749.287 536.723C749.416 536.551 749.66 536.515 749.832 536.644C750.005 536.773 750.04 537.017 749.911 537.189C748.492 539.09 747.182 541.134 745.978 543.3C743.432 547.88 741.463 552.789 740.002 557.7C739.491 559.418 739.08 561.013 738.76 562.445L738.695 562.738C738.618 563.088 738.552 563.407 738.496 563.693L738.46 563.88L738.395 564.234C738.359 564.446 738.158 564.589 737.946 564.553C737.734 564.518 737.591 564.317 737.627 564.105L737.649 563.979C737.667 563.878 737.689 563.759 737.716 563.622L737.78 563.298C737.843 562.988 737.916 562.647 737.999 562.274L738.07 561.962C738.383 560.595 738.776 559.09 739.255 557.477C740.732 552.516 742.721 547.555 745.297 542.921C746.518 540.726 747.846 538.653 749.287 536.723Z" fill="#253368"/>
<path d="M756.096 488.109C756.245 488.252 756.256 488.485 756.125 488.641L756.108 488.66C756.1 488.668 756.084 488.686 756.059 488.713L755.963 488.817L755.907 488.879C755.739 489.066 755.544 489.291 755.324 489.554C754.693 490.309 753.989 491.218 753.231 492.28C751.059 495.32 748.886 498.981 746.858 503.268C743.48 510.405 740.849 518.545 739.255 527.697C737.318 538.809 736.998 550.948 738.583 564.123C738.608 564.336 738.456 564.53 738.242 564.556C738.029 564.582 737.835 564.429 737.809 564.216C736.215 550.965 736.538 538.75 738.487 527.563C740.094 518.341 742.746 510.134 746.153 502.935C748.202 498.605 750.399 494.904 752.597 491.827L752.767 491.59C753.444 490.651 754.078 489.835 754.655 489.141L754.726 489.055C754.934 488.807 755.12 488.591 755.283 488.408L755.327 488.359C755.378 488.302 755.424 488.252 755.464 488.208L755.545 488.121C755.694 487.966 755.941 487.961 756.096 488.109Z" fill="#253368"/>
<path d="M722.369 511.216C722.553 511.105 722.792 511.163 722.904 511.347L722.943 511.413C722.974 511.466 723.011 511.529 723.053 511.602L723.114 511.709C723.218 511.892 723.336 512.103 723.465 512.342L723.572 512.54C723.969 513.278 724.403 514.131 724.867 515.098L724.93 515.231C726.443 518.4 727.954 522.106 729.365 526.316C733.315 538.107 735.718 551.489 735.808 566.222C735.809 566.437 735.635 566.613 735.42 566.614C735.205 566.615 735.03 566.442 735.028 566.227C734.939 551.58 732.551 538.279 728.626 526.564C727.251 522.46 725.78 518.841 724.308 515.738L724.227 515.567C723.724 514.512 723.255 513.593 722.833 512.811L722.706 512.577C722.584 512.354 722.474 512.158 722.377 511.99L722.331 511.911L722.237 511.751C722.126 511.567 722.185 511.328 722.369 511.216Z" fill="#253368"/>
<path fill-rule="evenodd" clip-rule="evenodd" d="M752.357 585.552H718.676C716.856 585.552 715.366 584.062 715.366 582.242V557.67C715.366 555.849 716.856 554.36 718.676 554.36H752.357C754.178 554.36 755.668 555.849 755.668 557.67V582.242C755.668 584.062 754.178 585.552 752.357 585.552Z" fill="#253368"/>
<path fill-rule="evenodd" clip-rule="evenodd" d="M294.314 175.263C294.816 175.768 294.814 176.584 294.31 177.086L272.562 198.736L293.113 219.194C293.617 219.697 293.619 220.513 293.117 221.017C292.615 221.522 291.799 221.524 291.294 221.022L269.825 199.65C269.582 199.408 269.445 199.079 269.445 198.736C269.445 198.393 269.582 198.064 269.825 197.822L292.491 175.259C292.996 174.757 293.812 174.758 294.314 175.263Z" fill="#597EF7"/>
<path fill-rule="evenodd" clip-rule="evenodd" d="M341.686 175.263C342.188 174.758 343.005 174.757 343.509 175.259L366.175 197.822C366.418 198.064 366.555 198.393 366.555 198.736C366.555 199.079 366.418 199.408 366.175 199.65L344.706 221.022C344.201 221.524 343.385 221.522 342.883 221.017C342.381 220.513 342.383 219.697 342.887 219.194L363.438 198.736L341.69 177.086C341.186 176.584 341.184 175.768 341.686 175.263Z" fill="#597EF7"/>
<path fill-rule="evenodd" clip-rule="evenodd" d="M331.011 168.197C332.509 168.917 333.139 170.713 332.42 172.211L306.317 226.566C305.598 228.064 303.801 228.695 302.303 227.976C300.806 227.256 300.175 225.46 300.894 223.962L326.998 169.607C327.717 168.109 329.514 167.478 331.011 168.197Z" fill="#597EF7"/>
</g>
<defs>
<clipPath id="clip0_10843_5668">
<rect width="1080" height="598" fill="white"/>
</clipPath>
<clipPath id="clip1_10843_5668">
<rect width="200" height="200" fill="white" transform="translate(638.936 154.167)"/>
</clipPath>
</defs>
</svg>
